<svg width="64" height="64" viewBox="0 0 64 64" fill="none" xmlns="http://www.w3.org/2000/svg">
<g clip-path="url(#clip0_57_281)">
<path d="M50.9093 35.4507C50.7573 35.584 50.2507 35.6907 49.8533 35.8027L37.112 39.2853C36.712 39.3947 36.384 39.1467 36.384 38.7307V35.44C36.3851 35.3406 36.3663 35.242 36.3287 35.1499C36.2912 35.0579 36.2356 34.9743 36.1654 34.904C36.0951 34.8337 36.0114 34.7781 35.9194 34.7406C35.8274 34.7031 35.7287 34.6843 35.6293 34.6853H21.6453C21.5464 34.686 21.4483 34.6671 21.3567 34.6295C21.2652 34.592 21.182 34.5366 21.112 34.4667C21.042 34.3967 20.9867 34.3135 20.9491 34.222C20.9116 34.1304 20.8926 34.0323 20.8933 33.9333V30.1067C20.8933 29.9065 20.8138 29.7146 20.6723 29.573C20.5308 29.4315 20.3388 29.352 20.1387 29.352H13.4267C13.16 29.352 12.9467 29.1387 12.9467 28.8773C12.9467 28.7227 13.0133 28.616 13.0933 28.5413C13.2427 28.4027 13.7493 28.2933 14.152 28.184L26.84 24.7173C27.24 24.6053 27.5653 24.8533 27.5653 25.272V28.5973C27.5653 29.0133 27.9067 29.352 28.3227 29.352H42.296C42.712 29.352 43.048 29.688 43.048 30.1067V33.8933C43.048 34.312 43.3867 34.6507 43.8 34.6507H50.5787C50.7055 34.6507 50.8272 34.7009 50.9171 34.7903C51.0071 34.8798 51.058 35.0012 51.0587 35.128C51.0581 35.1889 51.0444 35.249 51.0187 35.3042C50.9929 35.3594 50.9556 35.4111 50.9093 35.4507ZM43.048 41.5493C43.0393 41.7629 42.965 41.9687 42.8353 42.1385C42.7055 42.3084 42.5265 42.4342 42.3227 42.4987L37.112 43.9227C36.712 44.0347 36.384 43.784 36.384 43.368V41.4267C36.384 41.008 36.7227 40.6693 37.1387 40.6693H42.2933C42.712 40.6693 43.048 41.008 43.048 41.4267V41.5493ZM27.5547 45.7787C27.5465 45.9927 27.4725 46.1991 27.3427 46.3695C27.2128 46.5399 27.0336 46.666 26.8293 46.7307L21.6213 48.1573C21.2213 48.264 20.8933 48.016 20.8933 47.6V37.5787C20.8933 37.16 21.232 36.8213 21.648 36.8213H26.8027C27.2187 36.8213 27.5573 37.16 27.5573 37.5787L27.5547 45.7787ZM20.896 22.56C20.9043 22.3456 20.9788 22.139 21.1091 21.9686C21.2394 21.7982 21.4193 21.6722 21.624 21.608L26.8293 20.184C27.2347 20.072 27.56 20.3227 27.56 20.7387V22.6827C27.56 22.8828 27.4805 23.0748 27.339 23.2163C27.1974 23.3578 27.0055 23.4373 26.8053 23.4373H21.648C21.4479 23.4373 21.2559 23.3578 21.1144 23.2163C20.9728 23.0748 20.8933 22.8828 20.8933 22.6827L20.896 22.56ZM36.3867 18.328C36.3867 17.9093 36.712 17.4853 37.1147 17.3733L42.3253 15.952C42.7253 15.84 43.0507 16.0907 43.0507 16.5067V26.5307C43.0507 26.7308 42.9712 26.9228 42.8296 27.0643C42.6881 27.2058 42.4962 27.2853 42.296 27.2853H37.1413C36.9412 27.2853 36.7492 27.2058 36.6077 27.0643C36.4662 26.9228 36.3867 26.7308 36.3867 26.5307V18.328ZM32 0C14.3573 0 0 14.3573 0 32C0 49.6453 14.3573 64 32 64C49.648 64 64 49.6453 64 32C64 14.3573 49.648 0 32 0Z" fill="#6C63FF"/>
</g>
<rect x="0.5" y="0.5" width="63" height="63" stroke="#6C63FF"/>
<defs>
<clipPath id="clip0_57_281">
<rect width="64" height="64" fill="white"/>
</clipPath>
</defs>
</svg>
