<svg width="66" height="66" viewBox="0 0 66 66" fill="none" xmlns="http://www.w3.org/2000/svg">
<path d="M53.3636 18.4545C53.3636 18.4545 38.8182 38.8182 17 38.8182M17 38.8182C11.1818 38.8182 1 41.7273 1 53.3636V65H33V53.3636C33 46.0909 41.7273 50.4545 53.3636 30.0909L49 25.7273M17 38.8182C19.7004 38.8182 22.2902 37.7455 24.1996 35.836C26.1091 33.9265 27.1818 31.3368 27.1818 28.6364C27.1818 25.936 26.1091 23.3462 24.1996 21.4367C22.2902 19.5273 19.7004 18.4545 17 18.4545C14.2996 18.4545 11.7098 19.5273 9.80037 21.4367C7.89091 23.3462 6.81818 25.936 6.81818 28.6364C6.81818 31.3368 7.89091 33.9265 9.80037 35.836C11.7098 37.7455 14.2996 38.8182 17 38.8182ZM6.81818 12.6364V3.90909H65V44.6364H56.2727M30.0909 1H41.7273V6.81818H30.0909V1Z" stroke="#6C63FF" stroke-width="2"/>
</svg>
