<svg width="64" height="64" viewBox="0 0 64 64" fill="none" xmlns="http://www.w3.org/2000/svg">
<g clip-path="url(#clip0_57_287)">
<path fill-rule="evenodd" clip-rule="evenodd" d="M62.9947 15.2027C62.648 12.136 62.808 5.86932 60.568 4.13598C55.4747 0.18665 44.2987 1.25332 37.0667 0.933317C27.6827 0.559983 18.0533 1.30665 8.77333 1.57332C8.53286 1.57332 8.30225 1.66884 8.13222 1.83887C7.96218 2.00891 7.86666 2.23952 7.86666 2.47998C7.86666 2.72045 7.96218 2.95106 8.13222 3.12109C8.30225 3.29113 8.53286 3.38665 8.77333 3.38665C18 3.25332 27.4427 2.63998 36.912 3.17332C43.472 3.54665 54.7013 2.79998 58.9173 6.18665C59.984 7.03998 60.0107 13.3067 60.224 15.4933C61.12 23.2613 61.192 31.1013 60.4373 38.8853C60.3093 41.4986 59.9093 44.0907 59.2373 46.6187C53.0507 50.0853 6.93333 52.968 4.10666 48.0053C3.29817 45.4073 2.80574 42.7212 2.63999 40.0053C6.05333 39.312 11.1467 40.3787 32.4587 39.6853C48.1947 39.152 52.5147 39.6853 54.968 39.6853C55.128 39.6853 55.7947 38.352 54.968 37.952H54.6213C39.8747 36.432 29.632 36.832 6.21333 38.192C5.01684 38.1109 3.81489 38.1917 2.63999 38.432C1.84552 30.2132 1.93492 21.933 2.90666 13.7333C2.90666 12.3733 3.14666 11.0667 3.33333 9.62665C3.31374 7.9301 3.5018 6.23752 3.89333 4.58665C4.82666 3.65332 2.58666 1.65332 1.99999 5.49332C1.78666 6.85332 1.78666 8.66665 1.67999 9.38665C1.46666 10.8 1.30666 12.1867 1.17333 13.5733C0.0867119 21.0518 -0.243846 28.6206 0.186662 36.1653C0.253183 40.5858 0.853078 44.982 1.97333 49.2587C4.07999 53.128 17.36 53.4213 21.976 53.5013C20.6545 55.5686 20.0631 58.0188 20.296 60.4613C18.2427 60.6213 16.3227 60.808 14.5627 60.888C14.3505 60.888 14.147 60.9723 13.997 61.1223C13.8469 61.2723 13.7627 61.4758 13.7627 61.688C13.7627 61.9002 13.8469 62.1036 13.997 62.2537C14.147 62.4037 14.3505 62.488 14.5627 62.488C30.1093 63.0213 24.696 63.848 46.808 62.1413C47.0485 62.1413 47.2791 62.0458 47.4491 61.8758C47.6191 61.7057 47.7147 61.4751 47.7147 61.2346C47.7147 60.9942 47.6191 60.7636 47.4491 60.5935C47.2791 60.4235 47.0485 60.328 46.808 60.328H41.9013C41.5458 57.7938 40.8273 55.3241 39.768 52.9947C45.8496 52.6104 51.8884 51.7184 57.8213 50.328C61.664 49.288 62.3307 48.248 62.8373 45.208C64.336 35.264 64.3893 25.1573 62.9973 15.2M39.7653 60.2507C32.4853 60.0907 28.6187 60.0107 22.3253 60.2507C23.4297 58.1269 24.1091 55.808 24.3253 53.424C28.7787 53.424 33.0453 53.264 37.1253 53.024C37.4373 55.6027 38.3387 58.0773 39.7653 60.2507Z" fill="#6C63FF"/>
<path fill-rule="evenodd" clip-rule="evenodd" d="M31.7867 42.4081C29.52 41.2081 26.7467 43.5281 28.7734 45.5814C29.0196 45.8193 29.3128 46.003 29.6343 46.1207C29.9557 46.2384 30.2983 46.2875 30.6399 46.2649C30.9814 46.2423 31.3145 46.1485 31.6177 45.9894C31.9208 45.8304 32.1873 45.6096 32.4 45.3414C32.6507 44.8565 32.7266 44.3 32.6149 43.7657C32.5032 43.2314 32.2107 42.7519 31.7867 42.4081Z" fill="#6C63FF"/>
<path fill-rule="evenodd" clip-rule="evenodd" d="M6.95728 19.712C7.78395 29.1253 7.57061 29.4187 8.66395 30.5387C8.80675 30.7561 8.99886 30.9369 9.22466 31.0661C9.45046 31.1954 9.70357 31.2695 9.96342 31.2825C10.2233 31.2955 10.4825 31.247 10.7201 31.1409C10.9577 31.0348 11.1668 30.8741 11.3306 30.672C12.3059 28.6916 12.9114 26.5499 13.1173 24.352C15.4106 27.5787 16.5573 29.5253 17.6773 30.0587C17.9549 30.2237 18.2702 30.315 18.5931 30.3238C18.916 30.3326 19.2358 30.2586 19.522 30.109C19.8082 29.9593 20.0514 29.7389 20.2284 29.4687C20.4054 29.1985 20.5104 28.8875 20.5333 28.5653C20.6212 27.545 20.6212 26.519 20.5333 25.4987C20.7466 15.552 21.0666 11.976 19.7333 12.4587C18.6399 12.0293 18.6399 14.7253 18.6399 17.3387C18.6399 17.1253 17.8933 24.7787 18.0799 26.4587C18.0799 26.4587 15.0933 19.8187 14.7733 19.2053C14.6408 18.9094 14.4255 18.6582 14.1535 18.4819C13.8814 18.3056 13.5641 18.2118 13.2399 18.2118C12.9158 18.2118 12.5985 18.3056 12.3264 18.4819C12.0543 18.6582 11.8391 18.9094 11.7066 19.2053C10.8737 21.2807 10.2485 23.4334 9.83995 25.632L8.79995 19.3653C8.18661 16.6453 7.97328 14.6453 7.97328 14.4853C7.41061 12.992 6.15728 12.8587 6.37061 15.0987C6.47728 16.0053 6.90395 19.2053 6.95728 19.712ZM31.9733 19.2053C31.8408 18.9094 31.6255 18.6582 31.3535 18.4819C31.0814 18.3056 30.7641 18.2118 30.4399 18.2118C30.1158 18.2118 29.7985 18.3056 29.5264 18.4819C29.2543 18.6582 29.0391 18.9094 28.9066 19.2053C28.1114 21.2891 27.5045 23.4399 27.0933 25.632L26.0533 19.3653C25.4399 16.6987 25.3066 14.6453 25.2266 14.4853C24.6933 12.992 23.4399 12.8587 23.6533 15.0987C23.6533 15.9787 24.1333 19.2053 24.2133 19.712C25.0399 29.1253 24.8266 29.4187 25.9199 30.5387C26.0627 30.7561 26.2549 30.9369 26.4807 31.0661C26.7065 31.1954 26.9596 31.2695 27.2194 31.2825C27.4793 31.2955 27.7385 31.247 27.9761 31.1409C28.2137 31.0348 28.4228 30.8741 28.5866 30.672C29.5407 28.6836 30.1451 26.5456 30.3733 24.352C32.6666 27.5787 33.8133 29.5253 34.9093 30.0587C35.1875 30.2295 35.5052 30.3254 35.8314 30.3372C36.1577 30.349 36.4815 30.2762 36.7713 30.1259C37.0611 29.9756 37.3072 29.7529 37.4855 29.4795C37.6639 29.2061 37.7685 28.8911 37.7893 28.5653C37.8772 27.545 37.8772 26.519 37.7893 25.4987C38.0026 15.552 38.2959 11.976 36.9893 12.4587C35.8693 12.0293 36.0826 14.7253 35.9759 17.3387C35.9759 17.1253 35.2293 24.7787 35.4159 26.4587C35.3093 26.4587 32.3226 19.8187 31.9759 19.2053M49.2319 19.2053C49.0995 18.9094 48.8842 18.6582 48.6121 18.4819C48.3401 18.3056 48.0228 18.2118 47.6986 18.2118C47.3744 18.2118 47.0572 18.3056 46.7851 18.4819C46.513 18.6582 46.2978 18.9094 46.1653 19.2053C45.3701 21.2891 44.7632 23.4399 44.3519 25.632L43.3119 19.3653C42.6986 16.6987 42.5653 14.6453 42.4853 14.4853C41.9519 12.992 40.6986 12.8587 40.9119 15.0987C40.9119 15.9787 41.3919 19.2053 41.4719 19.712C42.2986 29.1253 42.0853 29.4187 43.1519 30.5387C43.2983 30.7515 43.4918 30.9277 43.7173 31.0536C43.9428 31.1795 44.1943 31.2517 44.4523 31.2646C44.7103 31.2775 44.9678 31.2308 45.2047 31.128C45.4417 31.0252 45.6518 30.8692 45.8186 30.672C46.7727 28.6836 47.3771 26.5456 47.6053 24.352C49.8986 27.5787 51.0453 29.5253 52.1386 30.0587C52.4168 30.2295 52.7345 30.3254 53.0608 30.3372C53.387 30.349 53.7108 30.2762 54.0006 30.1259C54.2905 29.9756 54.5365 29.7529 54.7149 29.4795C54.8932 29.2061 54.9979 28.8911 55.0186 28.5653C55.1065 27.545 55.1065 26.519 55.0186 25.4987C55.2319 15.552 55.5253 11.976 54.2186 12.4587C53.0986 12.0293 53.3119 14.7253 53.2053 17.3387C53.2053 17.1253 52.4586 24.7787 52.6453 26.4587C52.5653 26.4587 49.5519 19.8187 49.2319 19.2053Z" fill="#6C63FF"/>
</g>
<defs>
<clipPath id="clip0_57_287">
<rect width="64" height="64" fill="white"/>
</clipPath>
</defs>
</svg>
