<svg width="64" height="64" viewBox="0 0 64 64" fill="none" xmlns="http://www.w3.org/2000/svg">
<path d="M63.5 3.06055C58.4737 3.16714 53.9609 4.88662 49.9775 8.20605C45.8598 11.6375 43.1787 16.1325 41.9316 21.668L41.9307 21.6689L38.8721 35.4473L38.7363 36.0557H47.5V50.2891L48.0107 50.2773C50.3666 50.2268 52.3804 49.2854 54.0273 47.4805C55.5706 45.7892 56.3889 43.75 56.4893 41.3887H58.6904C58.5969 44.3048 57.68 46.8005 55.9424 48.8975L55.5625 49.335C53.4732 51.6312 50.9581 52.7878 47.9922 52.833L48 53.833H60.2998V63.5H58.0996V56.3887H49.9717C48.7007 56.3887 47.6155 55.8939 46.6924 54.8662C45.767 53.8358 45.3018 52.6056 45.2998 51.1494V38.6113H38.5244C37.964 38.6112 37.4833 38.3992 37.0664 37.9248L36.8916 37.7051C36.4442 37.0855 36.3204 36.4132 36.5225 35.6436L36.5264 35.626L39.8027 21.0664L39.8018 21.0654C41.2409 14.9419 44.1967 9.99089 48.6631 6.19043C52.9994 2.50068 57.9393 0.608379 63.5 0.503906V3.06055ZM0.5 0.504883C6.03911 0.61121 10.9831 2.49014 15.3486 6.15332C19.843 9.92481 22.7944 14.8886 24.1973 21.0674L27.5127 35.6592L27.5137 35.6641C27.6936 36.4243 27.5602 37.0944 27.1104 37.7139C26.6548 38.3365 26.1187 38.6113 25.4785 38.6113H18.7002V51.1465C18.7002 52.6073 18.2352 53.8378 17.3086 54.8652C16.3826 55.8919 15.2989 56.3866 14.0342 56.3887H5.90039V63.5H3.7002V53.833H16V52.833C13.0387 52.833 10.5268 51.6885 8.43848 49.3682C6.45368 47.1626 5.40968 44.5113 5.30957 41.3887H7.51172C7.61288 43.739 8.433 45.7844 9.97656 47.502L9.97754 47.5029C11.6354 49.34 13.6509 50.2773 16 50.2773H16.5V36.0557H25.2627L25.1279 35.4482L22.0879 21.6699V21.668L21.9668 21.1504C20.6699 15.8359 18.0277 11.5091 14.0381 8.19141C10.0543 4.87862 5.53618 3.16448 0.5 3.06055V0.504883ZM12 21.833C12.5282 21.833 12.963 22.0273 13.334 22.4395C13.7078 22.8548 13.9015 23.3639 13.9033 23.998C13.9051 24.6306 13.7125 25.1393 13.3369 25.5566C12.9631 25.972 12.5258 26.167 12.0029 26.167C11.5453 26.1669 11.1543 26.0187 10.8115 25.7041L10.668 25.5586C10.2935 25.144 10.0996 24.6355 10.0996 24C10.0996 23.3691 10.2927 22.8583 10.668 22.4375L10.667 22.4365C11.0376 22.0257 11.4727 21.833 12 21.833ZM51.998 21.833C52.5251 21.8349 52.9621 22.0298 53.3359 22.4414C53.7099 22.8533 53.9032 23.3605 53.9033 23.9961C53.9033 24.6326 53.71 25.142 53.3369 25.5566C52.9655 25.9693 52.5315 26.1639 52.0059 26.166C51.483 26.1659 51.0472 25.9729 50.6709 25.5586C50.2963 25.1438 50.1036 24.6363 50.1035 24.0039C50.1035 23.373 50.2957 22.8622 50.6709 22.4414C51.0423 22.0249 51.4749 21.8312 51.998 21.833Z" fill="#6C63FF" stroke="#6C63FF"/>
</svg>
