<svg width="64" height="64" viewBox="0 0 64 64" fill="none" xmlns="http://www.w3.org/2000/svg">
<rect x="0.5" y="0.5" width="63" height="63" fill="#6C63FF"/>
<rect x="0.5" y="0.5" width="63" height="63" stroke="#6C63FF"/>
<path d="M50.6667 10.6666H39.52C38.974 9.10781 37.957 7.75719 36.6098 6.80162C35.2626 5.84605 33.6517 5.33276 32 5.33276C30.3483 5.33276 28.7374 5.84605 27.3902 6.80162C26.043 7.75719 25.026 9.10781 24.48 10.6666H13.3333C11.9201 10.6709 10.566 11.2341 9.56676 12.2334C8.56748 13.2327 8.00422 14.5868 8 16V53.3333C8.00422 54.7465 8.56748 56.1006 9.56676 57.0999C10.566 58.0992 11.9201 58.6624 13.3333 58.6666H50.6667C52.0799 58.6624 53.434 58.0992 54.4332 57.0999C55.4325 56.1006 55.9958 54.7465 56 53.3333V16C55.9958 14.5868 55.4325 13.2327 54.4332 12.2334C53.434 11.2341 52.0799 10.6709 50.6667 10.6666ZM32 10.6666C32.5274 10.6666 33.043 10.823 33.4815 11.1161C33.9201 11.4091 34.2618 11.8255 34.4637 12.3128C34.6655 12.8001 34.7183 13.3363 34.6154 13.8535C34.5125 14.3708 34.2586 14.846 33.8856 15.2189C33.5127 15.5919 33.0375 15.8458 32.5202 15.9487C32.003 16.0516 31.4668 15.9988 30.9795 15.797C30.4922 15.5951 30.0758 15.2534 29.7827 14.8148C29.4897 14.3763 29.3333 13.8607 29.3333 13.3333C29.3354 12.6267 29.6171 11.9497 30.1167 11.45C30.6164 10.9504 31.2934 10.6687 32 10.6666ZM26.6667 24L34.1067 31.4506L40.8267 24.7306L37.3333 21.3333H48V32L44.5973 28.504L34.112 38.9973L26.6667 31.5466L19.7707 38.4373L16 34.6666L26.6667 24ZM50.6667 50.6666H13.3333V45.3333H50.6667V50.6666Z" fill="white"/>
</svg>
